<?xml version="1.0" standalone="no"?>
<!DOCTYPE svg PUBLIC "-//W3C//DTD SVG 20010904//EN"
 "http://www.w3.org/TR/2001/REC-SVG-20010904/DTD/svg10.dtd">
<svg version="1.0" xmlns="http://www.w3.org/2000/svg"
 width="500.000000pt" height="700.000000pt" viewBox="0 0 500.000000 700.000000"
 preserveAspectRatio="xMidYMid meet">

<g transform="translate(0.000000,700.000000) scale(0.100000,-0.100000)"
fill="#000000" stroke="none">
<path d="M2353 6856 c-23 -8 -67 -16 -98 -20 -182 -19 -284 -67 -442 -206
-183 -162 -211 -190 -281 -284 -150 -199 -205 -289 -236 -384 -24 -71 -19
-270 7 -319 10 -18 22 -66 27 -105 10 -79 32 -176 57 -248 9 -25 20 -65 24
-90 18 -99 23 -116 37 -140 28 -45 73 -85 119 -105 41 -18 47 -26 69 -85 14
-36 26 -69 27 -75 1 -5 5 -12 8 -15 16 -12 36 -79 32 -103 -8 -43 66 -180 164
-302 48 -61 99 -135 113 -165 39 -86 107 -145 260 -229 74 -41 162 -92 195
-114 33 -22 79 -48 103 -58 l43 -19 97 68 c53 38 145 97 204 132 168 99 240
166 252 233 4 23 3 37 -4 37 -5 0 -10 -7 -10 -17 0 -21 -77 -93 -109 -102 -14
-4 -33 -22 -43 -39 -40 -72 -169 -153 -246 -155 -37 0 -43 -3 -39 -19 4 -13 0
-18 -14 -18 -10 0 -23 -8 -28 -19 -15 -26 -70 -48 -81 -31 -4 7 -13 9 -20 5
-14 -8 -41 24 -35 42 2 7 -5 19 -16 26 -19 14 -17 16 29 40 28 14 52 24 55 21
3 -3 21 -2 39 2 l33 8 -30 6 c-30 7 -29 7 27 33 75 34 120 68 222 163 78 74
186 204 186 224 0 5 -19 -11 -41 -35 -23 -25 -44 -43 -47 -40 -3 3 0 11 6 17
7 7 12 18 12 26 0 8 9 27 20 42 11 16 23 43 26 62 4 18 12 40 19 48 8 10 12
39 10 83 -1 41 2 67 8 67 6 0 7 3 4 6 -3 4 -1 16 6 28 6 11 12 28 13 36 1 8 3
24 4 35 5 36 -10 74 -28 68 -10 -4 -13 -2 -8 5 4 7 1 12 -7 12 -14 0 -29 54
-18 65 2 3 6 13 7 23 3 36 10 47 29 52 15 5 20 15 20 41 1 22 9 44 23 59 12
13 23 29 24 34 0 6 2 16 3 21 2 6 3 19 4 29 0 11 4 16 8 13 3 -4 12 1 19 11
10 14 15 15 26 4 9 -9 14 -55 16 -164 1 -84 4 -153 6 -155 2 -2 10 2 18 9 26
24 52 39 96 54 11 4 13 8 5 11 -23 8 -14 31 17 45 17 7 30 20 30 28 1 8 19 29
40 45 22 17 44 45 51 65 6 19 15 40 19 45 13 18 40 113 40 140 0 14 6 36 14
48 17 28 59 204 51 217 -3 5 -10 46 -15 91 -5 45 -20 116 -34 158 -13 42 -32
114 -42 161 -11 50 -32 109 -51 143 -18 33 -33 61 -33 63 0 2 -15 24 -32 48
-85 112 -142 177 -210 236 -40 35 -96 88 -123 117 -28 29 -57 53 -64 53 -8 0
-34 15 -60 33 -25 18 -77 48 -116 67 -38 18 -78 37 -88 42 -54 26 -304 35
-374 14z m-101 -56 c4 -3 3 -11 -1 -19 -6 -9 -14 -10 -27 -3 -11 5 -30 15 -44
20 -24 10 -23 11 8 8 18 -2 35 1 38 6 3 5 9 6 13 1 3 -4 9 -10 13 -13z m-75
-26 c-3 -3 -12 -4 -19 -1 -8 3 -5 6 6 6 11 1 17 -2 13 -5z m-10 -50 c-3 -3
-12 -4 -19 -1 -8 3 -5 6 6 6 11 1 17 -2 13 -5z m-140 -190 c-3 -3 -12 -4 -19
-1 -8 3 -5 6 6 6 11 1 17 -2 13 -5z m371 -668 c7 -4 24 -5 37 -2 19 5 23 3 19
-8 -4 -10 8 -22 35 -36 31 -15 41 -26 41 -45 0 -14 4 -25 8 -25 12 0 33 -50
27 -61 -5 -8 7 -13 26 -11 3 1 6 -6 6 -14 0 -7 -4 -14 -9 -14 -5 0 -6 -5 -2
-12 5 -7 2 -9 -8 -6 -8 4 -21 2 -29 -3 -11 -7 -10 -9 6 -9 17 0 17 -2 -5 -17
-14 -9 -28 -21 -31 -25 -3 -5 -15 -10 -27 -11 -12 0 -24 -7 -26 -14 -3 -7 -15
-13 -26 -13 -12 0 -18 -4 -15 -10 3 -5 2 -10 -4 -10 -5 0 -11 4 -13 10 -2 5
-9 6 -16 1 -10 -6 -11 -17 -4 -42 9 -35 -6 -66 -24 -51 -5 4 -1 -3 9 -14 17
-20 17 -23 1 -39 -13 -13 -14 -19 -5 -25 10 -5 9 -9 -4 -14 -9 -3 -13 -11 -10
-17 4 -6 -2 -13 -14 -16 -12 -3 -21 -13 -21 -23 0 -10 -6 -21 -12 -23 -8 -3
-6 -6 5 -6 21 -1 22 -8 2 -28 -9 -8 -22 -13 -29 -10 -16 6 -30 70 -21 97 3 11
1 28 -5 39 -6 11 -12 39 -14 61 -4 44 -44 89 -58 67 -4 -7 -8 -7 -8 -2 0 6 -7
1 -15 -9 -8 -11 -15 -14 -15 -7 0 7 -4 10 -8 7 -4 -2 -14 5 -21 16 -11 18 -11
20 2 15 20 -7 31 21 16 39 -7 9 -17 11 -28 5 -9 -5 -27 -7 -41 -6 -14 1 -31
-3 -39 -9 -12 -9 -13 -7 -8 8 5 12 3 23 -5 28 -10 6 -7 10 9 14 13 4 20 10 18
15 -3 4 0 18 7 29 11 17 11 22 -2 30 -12 8 -12 10 -1 10 10 0 11 3 3 13 -15
17 -11 57 5 57 17 0 63 44 63 61 0 10 3 10 11 2 9 -9 20 -6 44 13 17 13 37 24
42 24 6 0 14 8 17 17 5 11 10 13 17 6 11 -11 49 -6 49 6 0 9 83 7 98 -3z
m-318 -90 c0 -8 -4 -18 -10 -21 -5 -3 -10 3 -10 14 0 12 5 21 10 21 6 0 10 -6
10 -14z m990 -140 c0 -8 5 -16 11 -18 5 -2 11 -12 13 -21 1 -10 8 -22 15 -27
10 -6 10 -9 1 -15 -6 -4 -11 -21 -10 -39 3 -51 1 -66 -11 -66 -5 0 -7 6 -4 13
4 6 0 4 -8 -5 -17 -21 -61 -19 -97 4 -14 9 -39 19 -57 23 -50 10 -47 30 8 56
41 20 49 28 46 47 -4 18 0 22 22 22 18 0 22 3 12 9 -10 6 -6 11 15 19 40 14
44 14 44 -2z m-272 -104 c-10 -2 -18 -8 -18 -13 0 -15 -37 -10 -44 6 -3 8 -1
15 4 15 6 0 10 -5 10 -11 0 -6 6 -9 13 -6 6 2 11 9 10 15 -1 6 7 7 20 4 18 -5
19 -7 5 -10z m-103 -2 c3 -5 1 -10 -4 -10 -6 0 -11 5 -11 10 0 6 2 10 4 10 3
0 8 -4 11 -10z m-1035 -150 c26 -14 19 -44 -11 -48 -21 -2 -25 2 -27 28 -2 31
7 37 38 20z m1149 -19 c11 -7 10 -11 -7 -20 -28 -15 -32 -14 -32 9 0 21 16 26
39 11z m-159 -62 c0 -4 -20 -9 -44 -10 -39 -4 -43 -2 -35 13 5 9 19 24 31 32
21 15 23 14 35 -7 7 -12 12 -25 13 -28z m-796 -23 c-3 -8 -1 -23 5 -34 9 -17
7 -19 -14 -14 -40 7 -50 28 -23 46 28 20 39 20 32 2z m1276 4 c0 -5 -5 -10
-11 -10 -5 0 -7 5 -4 10 3 6 8 10 11 10 2 0 4 -4 4 -10z m-1076 -49 c-2 -2
-19 -5 -38 -6 -33 -2 -34 -1 -24 27 l10 28 28 -23 c15 -12 26 -24 24 -26z
m1221 -13 c-3 -13 -10 -36 -15 -53 l-8 -30 -1 30 c-1 40 9 75 21 75 6 0 7 -10
3 -22z m-671 -229 c-3 -5 0 -9 5 -9 6 0 11 5 11 11 0 14 113 6 118 -9 2 -6 9
-9 17 -6 8 3 16 -4 20 -16 4 -13 12 -19 21 -16 8 3 14 0 14 -5 0 -6 9 -9 20
-6 11 3 18 1 14 -4 -3 -5 -2 -9 3 -9 4 0 17 13 28 29 21 33 42 35 67 10 15
-16 15 -18 -4 -22 -14 -4 -18 -1 -14 8 2 7 -1 15 -8 18 -8 3 -12 -7 -11 -31 0
-31 -3 -36 -28 -39 -20 -3 -27 0 -22 8 6 8 2 8 -13 0 -11 -6 -28 -8 -37 -5 -9
4 -20 2 -24 -3 -3 -5 -18 -13 -33 -17 -22 -5 -34 0 -59 24 -18 16 -36 30 -41
30 -5 0 -7 4 -4 9 3 5 -10 9 -29 9 -20 0 -48 8 -63 18 -27 18 -27 19 -4 22 12
2 22 7 22 12 0 4 9 6 20 3 11 -3 17 -9 14 -14z m-594 -110 c0 -5 4 -8 9 -4 5
3 12 1 16 -5 3 -5 -1 -10 -9 -10 -9 0 -16 -5 -16 -11 0 -5 5 -7 11 -4 6 4 13
-2 16 -14 3 -12 10 -21 15 -21 5 0 7 -4 3 -9 -3 -5 -1 -12 5 -16 5 -3 10 -11
10 -16 0 -6 -4 -8 -9 -5 -5 4 -7 -3 -4 -14 3 -11 1 -20 -3 -21 -5 0 -21 -2
-36 -4 -19 -2 -28 1 -29 11 -5 64 -3 101 4 112 7 8 4 12 -7 12 -9 0 -16 7 -16
15 0 8 9 15 20 15 11 0 20 -5 20 -11z m480 -22 c25 -1 46 -6 47 -12 0 -5 -3
-9 -7 -8 -5 2 -25 -4 -45 -13 -29 -12 -40 -12 -51 -3 -11 9 -18 9 -26 1 -7 -7
-20 -12 -30 -12 -10 0 -23 -10 -28 -22 -5 -13 -9 -18 -9 -12 -1 6 -15 14 -33
18 -17 3 -40 14 -51 23 -18 17 -17 18 30 34 31 11 67 16 103 13 30 -2 75 -5
100 -7z m185 -17 c5 -16 12 -19 28 -15 19 5 20 4 5 -5 -10 -6 -15 -17 -11 -27
5 -12 3 -14 -7 -8 -10 6 -12 4 -7 -8 4 -12 2 -14 -10 -10 -10 4 -14 2 -10 -4
3 -5 -5 -20 -18 -31 -27 -24 -61 -30 -49 -9 5 9 4 9 -5 1 -10 -9 -19 -5 -39
14 -19 17 -23 26 -14 29 24 9 63 51 60 64 -2 10 6 13 25 11 15 -1 27 2 27 8 0
18 18 11 25 -10z m288 -183 c-4 -6 0 -8 10 -4 9 3 18 3 21 -1 8 -14 -19 -38
-45 -40 -25 -1 -26 0 -24 47 3 67 14 82 31 41 8 -18 11 -37 7 -43z m-593 -51
c0 -3 -4 -8 -10 -11 -5 -3 -10 -1 -10 4 0 6 5 11 10 11 6 0 10 -2 10 -4z m10
-60 c0 -3 -4 -8 -10 -11 -5 -3 -10 -1 -10 4 0 6 5 11 10 11 6 0 10 -2 10 -4z
m240 -51 c0 -10 6 -12 18 -8 15 6 15 5 3 -10 -7 -9 -17 -15 -21 -12 -5 3 -11
1 -15 -5 -3 -5 -11 -10 -16 -10 -6 0 -8 4 -4 9 3 5 1 12 -5 16 -5 3 -10 2 -10
-3 0 -5 -6 -9 -12 -9 -7 0 -26 -4 -43 -7 l-30 -7 24 18 c21 15 78 38 104 42 4
1 7 -6 7 -14z m-150 -52 c0 -2 -7 -11 -15 -20 -9 -8 -14 -17 -11 -20 9 -9 78
17 91 34 7 10 16 15 19 12 10 -10 -5 -39 -21 -39 -7 0 -24 -11 -36 -24 -12
-13 -38 -29 -58 -36 -30 -11 -39 -11 -55 1 -11 8 -19 21 -19 29 0 8 -8 16 -17
18 -13 2 -18 -3 -18 -17 0 -16 -6 -20 -24 -19 -26 2 -26 18 0 18 8 0 14 7 14
16 0 8 -4 12 -10 9 -16 -10 -11 4 9 24 11 11 24 16 31 11 8 -5 24 -4 38 1 13
5 27 7 32 4 5 -3 11 -1 15 4 5 10 35 4 35 -6z m216 -12 c0 -16 -3 -17 -14 -9
-12 10 -7 19 13 28 1 0 1 -9 1 -19z m-31 -82 c3 -4 -1 -12 -9 -18 -11 -9 -20
-10 -35 -1 -12 6 -21 14 -21 18 0 9 56 9 65 1z m-42 -42 c-4 -6 0 -8 9 -5 9 4
15 0 15 -8 0 -8 -4 -14 -8 -14 -3 0 -9 -9 -12 -20 -3 -11 -11 -20 -17 -20 -10
0 -10 3 0 15 15 18 6 19 -23 3 -12 -7 -33 -13 -47 -13 -22 0 -25 -4 -22 -29 3
-19 0 -26 -8 -21 -6 4 -9 13 -6 21 3 9 -1 14 -12 14 -11 1 -4 8 18 21 19 11
27 18 18 15 -10 -3 -20 -1 -23 4 -9 15 -23 12 -27 -7 -3 -14 -5 -14 -18 3 -8
10 -10 16 -6 12 5 -4 15 -3 23 4 7 6 16 8 19 5 3 -3 14 3 25 14 21 21 49 26
49 8 0 -6 7 -4 15 5 17 16 49 11 38 -7z m189 -127 c-57 -55 -139 -106 -200
-125 l-24 -7 20 20 c11 11 31 23 44 27 23 7 89 44 98 55 3 3 21 16 41 28 19
12 44 30 54 42 10 11 21 20 24 20 3 -1 -22 -28 -57 -60z m-545 -136 c-3 -3
-12 -4 -19 -1 -8 3 -5 6 6 6 11 1 17 -2 13 -5z"/>
<path d="M2490 5766 c0 -9 5 -16 10 -16 6 0 10 4 10 9 0 6 -4 13 -10 16 -5 3
-10 -1 -10 -9z"/>
<path d="M3122 4475 c0 -11 4 -31 8 -45 6 -20 8 -21 8 -5 0 11 -4 31 -8 45 -6
20 -8 21 -8 5z"/>
<path d="M3221 4303 c6 -16 15 -53 21 -83 12 -66 24 -90 44 -90 8 0 27 -8 42
-17 20 -13 24 -14 16 -3 -6 8 -19 38 -29 65 -10 28 -29 65 -43 83 -15 19 -19
32 -12 32 7 0 1 9 -13 20 -34 27 -39 25 -26 -7z"/>
<path d="M1837 4168 c-8 -13 -24 -34 -36 -47 -36 -41 -27 -55 19 -31 23 12 40
28 40 38 0 9 3 27 6 40 4 12 2 22 -4 22 -5 0 -16 -10 -25 -22z"/>
<path d="M2696 4021 c-3 -5 -16 -7 -29 -4 -20 5 -21 4 -6 -11 12 -14 20 -14
47 -5 18 6 32 15 32 20 0 12 -37 12 -44 0z"/>
<path d="M1631 3980 c-24 -11 -51 -20 -61 -20 -46 0 -183 -43 -255 -81 l-80
-42 -175 -8 c-187 -9 -376 -37 -435 -64 -65 -31 -150 -142 -273 -355 -88 -153
-236 -553 -311 -843 l-41 -159 0 -1204 0 -1204 615 0 c338 0 615 3 615 8 0 4
-9 32 -21 62 -36 94 -53 182 -52 270 0 138 10 273 22 310 6 19 11 49 11 67 0
18 9 65 20 105 23 88 29 267 10 348 -12 53 -22 360 -24 695 -1 156 17 410 34
490 5 22 14 69 21 105 7 36 38 121 69 190 62 135 125 300 160 420 12 41 32
107 45 145 13 39 33 115 44 170 12 55 46 178 76 274 42 135 75 282 75 338 0
10 -52 0 -89 -17z m-913 -3893 c-4 -41 -25 -46 -33 -8 -8 36 0 52 21 44 10 -4
14 -16 12 -36z"/>
<path d="M3517 3961 c52 -38 71 -87 83 -213 10 -105 29 -212 60 -343 11 -44
34 -145 51 -225 17 -80 48 -199 69 -265 21 -66 52 -178 70 -250 17 -71 44
-182 60 -245 67 -265 95 -523 107 -967 7 -286 8 -279 -48 -249 -16 8 -32 10
-40 5 -14 -8 11 -21 67 -35 15 -4 27 -16 30 -31 11 -44 -3 -325 -22 -429 -10
-59 -14 -108 -9 -120 4 -10 10 -77 12 -149 2 -72 9 -131 14 -133 17 -6 9 -32
-10 -32 -16 0 -19 -9 -23 -63 -4 -51 -12 -74 -47 -132 -24 -38 -45 -73 -48
-77 -2 -5 246 -8 551 -8 l556 0 0 1415 c0 1613 12 1402 -95 1675 -52 134 -52
136 -47 221 4 78 1 96 -28 185 -19 59 -43 111 -59 127 -61 67 -200 112 -481
157 -106 18 -525 115 -657 153 -29 8 -64 24 -79 36 -15 12 -38 21 -52 21 -23
0 -22 -2 15 -29z m853 -2845 c0 -8 11 -50 24 -93 14 -43 27 -94 31 -114 3 -21
17 -53 30 -73 14 -20 25 -50 25 -65 0 -15 4 -41 9 -57 5 -16 14 -72 20 -124 7
-52 14 -112 17 -133 l6 -37 21 32 c26 38 65 50 130 41 l49 -6 -4 -122 c-4
-163 -9 -169 -126 -162 -45 3 -84 1 -87 -3 -6 -10 -95 -54 -99 -49 -7 10 -26
89 -26 108 0 13 -6 21 -18 21 -27 0 -62 29 -62 52 0 14 -5 18 -16 14 -9 -3
-20 -6 -25 -6 -5 0 -9 -7 -9 -15 0 -8 5 -15 10 -15 6 0 10 -7 10 -16 0 -11 -8
-14 -27 -12 l-28 3 -3 103 c-3 97 -2 102 18 102 18 0 20 -6 20 -56 0 -40 3
-54 13 -51 6 2 11 13 9 24 -1 11 5 26 14 34 15 12 16 12 10 -9 -8 -25 1 -28
38 -10 l26 11 -21 18 c-12 10 -19 25 -16 32 3 8 -1 44 -9 80 -12 57 -12 80 1
164 8 54 15 132 15 174 0 108 11 229 21 229 5 0 9 -6 9 -14z m-190 -540 c0 -9
-12 -16 -27 -18 -23 -2 -29 -8 -31 -35 -3 -30 -1 -33 22 -33 32 0 34 -17 4
-22 -22 -3 -23 -8 -26 -90 -3 -80 -5 -88 -22 -88 -18 0 -20 7 -20 90 0 79 -2
90 -17 90 -17 1 -16 2 1 15 11 8 20 30 22 51 4 43 16 54 62 54 21 0 32 -5 32
-14z m78 -9 c4 -21 -27 -35 -38 -17 -12 19 0 42 19 38 9 -2 17 -11 19 -21z"/>
<path d="M4602 453 c-31 -26 -34 -100 -6 -127 21 -22 50 -20 74 4 26 26 29
124 4 134 -27 10 -51 7 -72 -11z"/>
<path d="M4357 373 c-12 -11 -8 -40 8 -53 13 -10 15 -9 15 11 0 28 -13 52 -23
42z"/>
<path d="M4662 292 c-19 -12 -32 -14 -60 -6 l-37 10 -1 -33 -1 -33 53 0 c58 0
77 14 72 53 -3 24 -4 24 -26 9z"/>
<path d="M2445 3704 c-44 -31 -110 -76 -147 -100 l-68 -45 17 -27 c10 -15 36
-50 59 -79 36 -45 41 -57 38 -95 -2 -30 -9 -47 -24 -58 -50 -35 -102 -85 -116
-112 -24 -47 -142 -505 -193 -748 -95 -462 -157 -970 -171 -1403 -5 -166 -14
-369 -19 -452 -6 -82 -11 -209 -12 -281 l-2 -130 63 -87 64 -87 179 0 180 0
60 62 c97 102 100 109 92 270 -9 187 -8 348 4 438 6 41 11 185 11 320 1 260
19 532 37 565 6 11 16 74 22 140 39 397 70 604 135 923 16 76 28 177 32 266 6
126 4 159 -16 268 -22 120 -22 126 -5 162 10 20 44 63 76 95 l59 58 -75 63
c-62 54 -178 130 -195 130 -3 0 -41 -25 -85 -56z m24 -2048 c-2 -2 -74 -11
-159 -20 -85 -9 -168 -19 -185 -22 -20 -4 -27 -3 -20 4 6 6 66 17 135 25 123
14 237 21 229 13z"/>
</g>
</svg>
